<?xml version="1.0" encoding="utf-8"?>
<!-- Generator: Adobe Illustrator 25.2.2, SVG Export Plug-In . SVG Version: 6.00 Build 0)  -->
<svg version="1.1" id="Layer_1" xmlns="http://www.w3.org/2000/svg" xmlns:xlink="http://www.w3.org/1999/xlink" x="0px" y="0px"
	 viewBox="0 0 76.9 34.7" style="enable-background:new 0 0 76.9 34.7;" xml:space="preserve">
<style type="text/css">
	.ltdr_st0{fill:#696969;}
</style>
<g>
	<path class="ltdr_st0" d="M62,29.8c-6.9,0-12.4-5.6-12.4-12.4C49.5,11,54.4,5.7,60.7,5c0.4,0,0.8,0.2,1,0.6c0.2,0.4,0.1,0.8-0.2,1.1
		c-1.6,1.5-2.4,3.4-2.4,5.6c0,4.2,3.4,7.7,7.7,7.7c2.3,0,4.5-1,5.9-2.8c0.3-0.3,0.7-0.4,1.1-0.3c0.4,0.1,0.6,0.5,0.6,0.9
		C74.2,24.5,68.7,29.8,62,29.8z M58.4,7.5c-4.1,1.4-7,5.4-7,9.9c0,5.8,4.7,10.5,10.5,10.5c4.9,0,8.9-3.2,10.1-7.7
		c-1.6,1.1-3.4,1.6-5.3,1.6c-5.3,0-9.6-4.3-9.6-9.6C57.2,10.6,57.6,8.9,58.4,7.5z"/>
</g>
<g>
	<g>
		<path class="ltdr_st0" d="M18.8,25.3c-4.3,0-7.9-3.5-7.9-7.9s3.5-7.9,7.9-7.9s7.9,3.5,7.9,7.9C26.6,21.8,23.1,25.3,18.8,25.3z
			 M18.8,11.1c-3.5,0-6.3,2.8-6.3,6.3c0,3.5,2.8,6.3,6.3,6.3s6.3-2.8,6.3-6.3C25,14,22.2,11.1,18.8,11.1z"/>
	</g>
	<g>
		<path class="ltdr_st0" d="M18.8,6.6c-0.4,0-0.8-0.4-0.8-0.8V2.5c0-0.4,0.4-0.8,0.8-0.8c0.4,0,0.8,0.4,0.8,0.8v3.3
			C19.5,6.2,19.2,6.6,18.8,6.6z"/>
	</g>
	<g>
		<path class="ltdr_st0" d="M26.6,10.6c-0.2,0-0.4-0.1-0.6-0.2c-0.3-0.3-0.3-0.8,0-1.1l2.8-2.8c0.3-0.3,0.8-0.3,1.1,0
			c0.3,0.3,0.3,0.8,0,1.1l-2.8,2.8C27,10.5,26.8,10.6,26.6,10.6z"/>
	</g>
	<g>
		<path class="ltdr_st0" d="M9.7,10.6c-0.2,0-0.4-0.1-0.6-0.2L6.3,7.5C6,7.2,6,6.7,6.3,6.4c0.3-0.3,0.8-0.3,1.1,0l2.8,2.8
			c0.3,0.3,0.3,0.8,0,1.1C10.1,10.5,9.9,10.6,9.7,10.6z"/>
	</g>
	<g>
		<path class="ltdr_st0" d="M18.1,33c-0.4,0-0.8-0.4-0.8-0.8v-3.3c0-0.4,0.4-0.8,0.8-0.8c0.4,0,0.8,0.4,0.8,0.8v3.3
			C18.9,32.6,18.6,33,18.1,33z"/>
	</g>
	<g>
		<path class="ltdr_st0" d="M7.5,28.5c-0.2,0-0.4-0.1-0.6-0.2c-0.3-0.3-0.3-0.8,0-1.1l2.8-2.8c0.3-0.3,0.8-0.3,1.1,0
			c0.3,0.3,0.3,0.8,0,1.1l-2.8,2.8C7.9,28.5,7.7,28.5,7.5,28.5z"/>
	</g>
	<g>
		<path class="ltdr_st0" d="M30,28.5c-0.2,0-0.4-0.1-0.6-0.2l-2.8-2.8c-0.3-0.3-0.3-0.8,0-1.1c0.3-0.3,0.8-0.3,1.1,0l2.8,2.8
			c0.3,0.3,0.3,0.8,0,1.1C30.4,28.5,30.2,28.5,30,28.5z"/>
	</g>
	<g>
		<path class="ltdr_st0" d="M6.9,18.2H3.3c-0.4,0-0.8-0.4-0.8-0.8c0-0.4,0.4-0.8,0.8-0.8h3.5c0.4,0,0.8,0.4,0.8,0.8
			C7.7,17.9,7.3,18.2,6.9,18.2z"/>
	</g>
	<g>
		<path class="ltdr_st0" d="M33.6,18.2h-4.2c-0.4,0-0.8-0.4-0.8-0.8c0-0.4,0.4-0.8,0.8-0.8h4.2c0.4,0,0.8,0.4,0.8,0.8
			C34.4,17.9,34,18.2,33.6,18.2z"/>
	</g>
</g>
</svg>
